# xmcd CD database file
#
# Track frame offsets:
#	150
#	18640
#	36937
#	54248
#	70880
#	91565
#	97937
#	120128
#	139822
#	156928
#	172676
#	198473
#
# Disc length: 2883 seconds
#
# Revision: 0
# Processed by: cddbd v1.5PL3 Copyright (c) Steve Scherf et al.
# Submitted via: CDex 1.51
#
DISCID=8c0b410c
DTITLE=Will Allen - Project 1
DYEAR=1999
DGENRE=Jazz
TTITLE0=Will Allen - Project 1 - 01 - For Your Love
TTITLE1=Will Allen - Project 1 - 02 - As It Were
TTITLE2=Will Allen - Project 1 - 03 - Got This Feeling
TTITLE3=Will Allen - Project 1 - 04 - Reflections
TTITLE4=Will Allen - Project 1 - 05 - Makayla
TTITLE5=Will Allen - Project 1 - 06 - Time Island(Interlude)
TTITLE6=Will Allen - Project 1 - 07 - Touch Away
TTITLE7=Will Allen - Project 1 - 08 - Crossroad
TTITLE8=Will Allen - Project 1 - 09 - For My Grandpa
TTITLE9=Will Allen - Project 1 - 10 - Don't You Know(House Jazz)
TTITLE10=Will Allen - Project 1 - 11 - Test The Music
TTITLE11=Will Allen - Project 1 - 12 - Touch Away - Phase 2
EXTD=YEAR: 1999
EXTT0=
EXTT1=
EXTT2=
EXTT3=
EXTT4=
EXTT5=
EXTT6=
EXTT7=
EXTT8=
EXTT9=
EXTT10=
EXTT11=
PLAYORDER=
